<?xml version="1.0" standalone="no"?>
<!DOCTYPE svg PUBLIC "-//W3C//DTD SVG 20010904//EN"
 "http://www.w3.org/TR/2001/REC-SVG-20010904/DTD/svg10.dtd">
<svg version="1.0" xmlns="http://www.w3.org/2000/svg"
 width="182.000000pt" height="39.000000pt" viewBox="0 0 182.000000 39.000000"
 preserveAspectRatio="xMidYMid meet">

<g transform="translate(0.000000,39.000000) scale(0.100000,-0.100000)"
fill="#000000" stroke="none">
<path d="M96 281 c-7 -10 17 -21 45 -21 17 0 19 -8 19 -85 0 -49 4 -85 10 -85
14 0 23 45 16 76 -4 14 -4 40 0 59 5 27 11 35 32 37 14 2 27 9 30 16 4 14
-143 18 -152 3z"/>
<path d="M402 195 c4 -127 22 -129 26 -2 2 83 0 97 -13 97 -13 0 -15 -14 -13
-95z"/>
<path d="M880 270 c-11 -11 -20 -23 -20 -28 0 -20 33 -50 69 -62 45 -14 56
-44 21 -55 -27 -9 -60 3 -60 21 0 8 -7 14 -15 14 -17 0 -19 -14 -5 -40 22 -42
114 -30 126 16 9 37 -1 52 -46 65 -44 13 -65 32 -55 49 11 18 64 12 77 -10 16
-25 28 -26 28 -2 0 48 -82 70 -120 32z"/>
<path d="M780 256 c-13 -36 3 -136 25 -153 11 -7 22 -13 27 -13 14 0 9 28 -7
34 -17 6 -22 86 -5 86 6 0 10 7 10 15 0 8 -4 15 -10 15 -5 0 -10 9 -10 20 0
28 -19 25 -30 -4z"/>
<path d="M1350 262 c0 -10 -6 -24 -12 -31 -10 -11 -10 -14 0 -18 7 -3 12 -22
12 -46 0 -47 7 -60 32 -70 23 -8 35 13 14 25 -19 11 -22 78 -4 96 9 9 10 15 2
20 -6 4 -13 15 -17 25 -8 22 -27 22 -27 -1z"/>
<path d="M1432 256 c-15 -34 0 -135 23 -153 11 -7 22 -13 27 -13 14 0 9 28 -7
34 -22 8 -20 75 3 92 16 12 16 13 0 19 -10 4 -18 16 -18 26 0 26 -15 24 -28
-5z"/>
<path d="M266 214 c-34 -35 -36 -87 -3 -108 12 -8 40 -13 62 -11 l40 3 0 55
c0 87 -45 114 -99 61z m68 -20 c12 -32 6 -55 -19 -66 -21 -9 -29 -9 -41 4 -14
14 -14 19 0 47 18 33 50 42 60 15z"/>
<path d="M493 228 c-12 -6 -27 -23 -33 -38 -25 -60 38 -115 103 -91 40 15 35
35 -7 27 -18 -4 -41 -4 -50 0 -31 12 -16 23 36 26 63 4 73 23 34 63 -27 27
-48 30 -83 13z m67 -33 c11 -13 7 -15 -30 -15 -37 0 -41 2 -30 15 7 8 20 15
30 15 10 0 23 -7 30 -15z"/>
<path d="M625 229 c-10 -15 4 -139 15 -139 5 0 10 23 12 51 3 55 21 78 52 66
12 -5 16 -20 16 -62 0 -30 4 -55 9 -55 25 0 29 95 5 128 -17 24 -53 29 -72 10
-9 -9 -12 -9 -12 0 0 15 -17 16 -25 1z"/>
<path d="M1035 232 c-3 -3 -5 -47 -5 -99 0 -76 3 -93 15 -93 10 0 15 10 15 29
0 24 3 28 23 24 35 -7 77 32 77 70 -1 49 -23 71 -75 73 -24 1 -46 -1 -50 -4z
m83 -34 c7 -7 12 -24 12 -39 0 -32 -32 -48 -55 -29 -27 23 -12 80 20 80 6 0
16 -5 23 -12z"/>
<path d="M1206 218 c-51 -72 30 -162 92 -104 7 7 15 28 18 48 5 28 2 40 -15
57 -28 28 -75 28 -95 -1z m79 -28 c10 -32 -4 -60 -30 -60 -31 0 -50 32 -35 60
6 11 21 20 35 20 15 0 26 -7 30 -20z"/>
<path d="M1536 219 c-30 -24 -36 -78 -10 -103 22 -23 62 -30 90 -17 37 16 30
33 -11 25 -24 -4 -41 -2 -52 7 -14 12 -10 15 38 19 64 6 74 26 35 65 -31 30
-55 32 -90 4z m74 -24 c11 -13 7 -15 -30 -15 -37 0 -41 2 -30 15 7 8 20 15 30
15 10 0 23 -7 30 -15z"/>
<path d="M1680 169 c0 -37 5 -71 10 -74 6 -4 10 13 10 42 0 52 12 73 43 73 35
0 11 24 -26 26 l-37 1 0 -68z"/>
</g>
</svg>
